<?xml version="1.0" encoding="UTF-8" standalone="no"?>
<!DOCTYPE svg PUBLIC "-//W3C//DTD SVG 1.1//EN" "http://www.w3.org/Graphics/SVG/1.1/DTD/svg11.dtd">
<svg width="100%" height="100%" viewBox="0 0 128 128" version="1.1" xmlns="http://www.w3.org/2000/svg" xmlns:xlink="http://www.w3.org/1999/xlink" xml:space="preserve" xmlns:serif="http://www.serif.com/" style="fill-rule:evenodd;clip-rule:evenodd;">
    <g id="Layer-1" serif:id="Layer 1">
        <path id="path1" d="M24,0L104,0C117.25,0 128,10.75 128,24L128,104C128,117.25 117.25,128 104,128L24,128C10.75,128 0,117.25 0,104L0,24C0,10.75 10.75,0 24,0Z" style="fill:rgb(5,5,5);fill-rule:nonzero;"/>
        <path id="path2" d="M24,2L104,2C116.15,2 126,11.85 126,24L126,104C126,116.15 116.15,126 104,126L24,126C11.85,126 2,116.15 2,104L2,24C2,11.85 11.85,2 24,2Z" style="fill:none;fill-rule:nonzero;stroke:white;stroke-opacity:0.1;stroke-width:2px;"/>
        <g transform="matrix(1.11221,0,0,0.92524,-21.3228,1.45411)">
            <g transform="matrix(103.567,0,0,103.567,106.904,104.573)">
            </g>
            <text x="46.939px" y="104.573px" style="font-family:'NotoSerif-Bold', 'Noto Serif', serif;font-weight:700;font-size:103.567px;fill:rgb(61,121,244);">S</text>
        </g>
    </g>
</svg>
